<?xml version="1.0" encoding="UTF-8" standalone="no"?>
<!-- Created with Inkscape (http://www.inkscape.org/) -->

<svg
   xmlns:dc="http://purl.org/dc/elements/1.1/"
   xmlns:cc="http://creativecommons.org/ns#"
   xmlns:rdf="http://www.w3.org/1999/02/22-rdf-syntax-ns#"
   xmlns:svg="http://www.w3.org/2000/svg"
   xmlns="http://www.w3.org/2000/svg"
   xmlns:sodipodi="http://sodipodi.sourceforge.net/DTD/sodipodi-0.dtd"
   xmlns:inkscape="http://www.inkscape.org/namespaces/inkscape"
   width="256"
   height="64"
   id="svg2"
   version="1.1"
   inkscape:version="0.48.2 r9819"
   sodipodi:docname="ground_desert_line.svg"
   inkscape:export-filename="C:\Users\Muffin\Documents\GitHub\Rollabout\Assets\Art\Terrain\ground_desert_line.png"
   inkscape:export-xdpi="90"
   inkscape:export-ydpi="90">
  <defs
     id="defs4" />
  <sodipodi:namedview
     id="base"
     pagecolor="#ffffff"
     bordercolor="#666666"
     borderopacity="1.0"
     inkscape:pageopacity="0.0"
     inkscape:pageshadow="2"
     inkscape:zoom="2.8"
     inkscape:cx="134.16601"
     inkscape:cy="109.86434"
     inkscape:document-units="px"
     inkscape:current-layer="layer1"
     showgrid="false"
     inkscape:window-width="1680"
     inkscape:window-height="988"
     inkscape:window-x="-8"
     inkscape:window-y="-8"
     inkscape:window-maximized="1" />
  <metadata
     id="metadata7">
    <rdf:RDF>
      <cc:Work
         rdf:about="">
        <dc:format>image/svg+xml</dc:format>
        <dc:type
           rdf:resource="http://purl.org/dc/dcmitype/StillImage" />
        <dc:title></dc:title>
      </cc:Work>
    </rdf:RDF>
  </metadata>
  <g
     inkscape:label="Layer 1"
     inkscape:groupmode="layer"
     id="layer1"
     transform="translate(0,-988.36218)">
    <rect
       style="fill:#c46a29;fill-opacity:1;stroke:none"
       id="rect2999"
       width="256"
       height="64"
       x="2.2622071e-006"
       y="988.36218"
       ry="0" />
    <rect
       ry="0"
       y="1044.3622"
       x="2.2622071e-006"
       height="8"
       width="256"
       id="rect3001"
       style="fill:#b65b21;fill-opacity:1;stroke:none" />
    <path
       style="fill:#f8bd6b;fill-opacity:1;stroke:none"
       d="m 0,988.36221 256,0 0,11.99999 c -8.17055,3.1096 -16.5044,2.2597 -24.93134,2.2927 -12.13778,0.048 -24.46869,-0.2225 -36.78295,-2.2927 -10.62577,2.9822 -21.07628,2.0365 -31.42098,1.9269 -12.07417,-0.128 -24.00418,0.1582 -35.90044,-1.9269 -10.18299,2.7409 -20.11123,2.017 -29.832599,2.1036 -11.323138,0.1008 -22.365621,0.5879 -33.203121,-2.1036 -11.9378,2.8719 -23.756065,2.7078 -35.355207,2.6446 C 18.876365,1002.954 9.3325135,1003.5739 0,1000.3622 z"
       id="rect3013"
       inkscape:connector-curvature="0"
       sodipodi:nodetypes="cccscscscscc" />
    <path
       style="fill:#d2902a;fill-opacity:1;stroke:none"
       d="m 0,988.36221 256,0 0,7.99999 c -7.56889,3.16084 -15.4237,0.46322 -23.4529,0.63209 -12.35722,0.2599 -25.12749,1.83494 -37.90424,-0.63209 -10.44441,2.83139 -20.96534,-0.0209 -31.54068,-0.0701 -11.75081,-0.0547 -23.5688,2.4128 -35.42361,0.0701 -10.55816,2.30252 -20.90801,-0.31146 -30.991112,-0.0991 -11.089647,0.23351 -21.856627,3.04728 -32.223178,0.0991 -12.094582,2.17888 -24.196286,0.27228 -36.470693,0.29325 C 18.78296,996.67115 9.4750865,999.51996 0,996.3622 z"
       id="rect3015"
       inkscape:connector-curvature="0"
       sodipodi:nodetypes="cccscscscscc" />
  </g>
</svg>
