<?xml version="1.0" encoding="UTF-8" standalone="no"?>
<!-- Created with Inkscape (http://www.inkscape.org/) -->

<svg
   xmlns:dc="http://purl.org/dc/elements/1.1/"
   xmlns:cc="http://creativecommons.org/ns#"
   xmlns:rdf="http://www.w3.org/1999/02/22-rdf-syntax-ns#"
   xmlns:svg="http://www.w3.org/2000/svg"
   xmlns="http://www.w3.org/2000/svg"
   xmlns:sodipodi="http://sodipodi.sourceforge.net/DTD/sodipodi-0.dtd"
   xmlns:inkscape="http://www.inkscape.org/namespaces/inkscape"
   width="256"
   height="64"
   id="svg2"
   version="1.1"
   inkscape:version="0.48.2 r9819"
   sodipodi:docname="ground_grass_line.svg"
   inkscape:export-filename="C:\Users\Muffin\Documents\GitHub\Rollabout\Assets\Art\Terrain\ground_grass_line.png"
   inkscape:export-xdpi="90"
   inkscape:export-ydpi="90">
  <defs
     id="defs4" />
  <sodipodi:namedview
     id="base"
     pagecolor="#ffffff"
     bordercolor="#666666"
     borderopacity="1.0"
     inkscape:pageopacity="0.0"
     inkscape:pageshadow="2"
     inkscape:zoom="5.6"
     inkscape:cx="104.00669"
     inkscape:cy="54.649608"
     inkscape:document-units="px"
     inkscape:current-layer="layer1"
     showgrid="false"
     inkscape:window-width="1680"
     inkscape:window-height="988"
     inkscape:window-x="-8"
     inkscape:window-y="-8"
     inkscape:window-maximized="1" />
  <metadata
     id="metadata7">
    <rdf:RDF>
      <cc:Work
         rdf:about="">
        <dc:format>image/svg+xml</dc:format>
        <dc:type
           rdf:resource="http://purl.org/dc/dcmitype/StillImage" />
        <dc:title />
      </cc:Work>
    </rdf:RDF>
  </metadata>
  <g
     inkscape:label="Layer 1"
     inkscape:groupmode="layer"
     id="layer1"
     transform="translate(0,-988.36218)">
    <rect
       style="fill:#784421;fill-opacity:1;stroke:none"
       id="rect2999"
       width="256"
       height="64"
       x="0"
       y="988.36218"
       ry="0" />
    <rect
       ry="0"
       y="1044.3622"
       x="0"
       height="8"
       width="256"
       id="rect3001"
       style="fill:#64381a;fill-opacity:1;stroke:none" />
    <path
       style="fill:#0e430e;fill-opacity:1;stroke:none"
       d="m 0,988.36218 256,0 0,16.00002 c -19.93905,7.5885 -40.85056,3.5075 -61.71429,0 -23.02801,6.4629 -44.87576,3.3358 -66.96428,-0.5357 -22.04381,5.9334 -43.250924,5.538 -63.392858,0.5357 -21.917922,5.2728 -43.432899,7.0534 -63.928572,0 z"
       id="rect3013"
       inkscape:connector-curvature="0"
       sodipodi:nodetypes="cccccccc" />
    <path
       style="fill:#0c510c;fill-opacity:1;stroke:none"
       d="m 0,988.36218 256,0 0,12.00002 c -19.21769,8.0255 -40.27861,4.07 -61.35714,0 -22.04973,5.9775 -44.79768,3.7368 -67.32143,-0.71429 -22.17028,4.83489 -43.064958,6.34299 -62.857144,0.71429 -21.170273,3.8139 -42.362364,7.3659 -64.464286,0 z"
       id="rect3015"
       inkscape:connector-curvature="0"
       sodipodi:nodetypes="cccccccc" />
    <g
       id="g3025"
       transform="translate(-320,0)">
      <rect
         style="fill:#784421;fill-opacity:1;stroke:none"
         id="rect3017"
         width="256"
         height="64"
         x="0"
         y="988.36218"
         ry="0" />
      <rect
         ry="0"
         y="1044.3622"
         x="0"
         height="8"
         width="256"
         id="rect3019"
         style="fill:#64381a;fill-opacity:1;stroke:none" />
      <rect
         style="fill:#0e430e;fill-opacity:1;stroke:none"
         id="rect3021"
         width="256"
         height="16"
         x="0"
         y="988.36218"
         ry="0" />
      <rect
         ry="0"
         y="988.36218"
         x="0"
         height="12"
         width="256"
         id="rect3023"
         style="fill:#0c510c;fill-opacity:1;stroke:none" />
    </g>
  </g>
</svg>
