<?xml version="1.0" encoding="UTF-8" standalone="no"?>
<!-- Created with Inkscape (http://www.inkscape.org/) -->

<svg
   xmlns:dc="http://purl.org/dc/elements/1.1/"
   xmlns:cc="http://creativecommons.org/ns#"
   xmlns:rdf="http://www.w3.org/1999/02/22-rdf-syntax-ns#"
   xmlns:svg="http://www.w3.org/2000/svg"
   xmlns="http://www.w3.org/2000/svg"
   xmlns:sodipodi="http://sodipodi.sourceforge.net/DTD/sodipodi-0.dtd"
   xmlns:inkscape="http://www.inkscape.org/namespaces/inkscape"
   width="64"
   height="64"
   id="svg2"
   version="1.1"
   inkscape:version="0.48.2 r9819"
   sodipodi:docname="ground_grass2_circle.svg"
   inkscape:export-filename="C:\Users\Muffin\Documents\GitHub\Rollabout\Assets\Art\Terrain\ground_grass2_circle.png"
   inkscape:export-xdpi="90"
   inkscape:export-ydpi="90">
  <defs
     id="defs4" />
  <sodipodi:namedview
     id="base"
     pagecolor="#ffffff"
     bordercolor="#666666"
     borderopacity="1.0"
     inkscape:pageopacity="0.0"
     inkscape:pageshadow="2"
     inkscape:zoom="1.979899"
     inkscape:cx="108.2565"
     inkscape:cy="43.323535"
     inkscape:document-units="px"
     inkscape:current-layer="layer1"
     showgrid="false"
     inkscape:window-width="1680"
     inkscape:window-height="988"
     inkscape:window-x="-8"
     inkscape:window-y="-8"
     inkscape:window-maximized="1" />
  <metadata
     id="metadata7">
    <rdf:RDF>
      <cc:Work
         rdf:about="">
        <dc:format>image/svg+xml</dc:format>
        <dc:type
           rdf:resource="http://purl.org/dc/dcmitype/StillImage" />
        <dc:title></dc:title>
      </cc:Work>
    </rdf:RDF>
  </metadata>
  <g
     inkscape:label="Layer 1"
     inkscape:groupmode="layer"
     id="layer1"
     transform="translate(0,-988.36218)">
    <path
       sodipodi:type="arc"
       style="fill:#784421;fill-opacity:1;stroke:none"
       id="path2985"
       sodipodi:cx="10.892858"
       sodipodi:cy="25.607143"
       sodipodi:rx="29.642857"
       sodipodi:ry="29.642857"
       d="m 40.535714,25.607143 a 29.642857,29.642857 0 1 1 -59.285713,0 29.642857,29.642857 0 1 1 59.285713,0 z"
       transform="matrix(1.0795181,0,0,1.0795181,20.240963,1092.7188)" />
    <path
       style="fill:#64381a;fill-opacity:1;stroke:none"
       d="m 0.25,1116.3622 c -0.16310931,1.3092 -0.25,2.6466 -0.25,4 0,17.6731 14.326888,32 32,32 17.673112,0 32,-14.3269 32,-32 0,-1.3534 -0.08689,-2.6908 -0.25,-4 -1.966806,15.787 -15.430298,28 -31.75,28 -16.319702,0 -29.7831941,-12.213 -31.75,-28 z"
       id="path3770"
       inkscape:connector-curvature="0" />
    <path
       style="fill:#0e430e;fill-opacity:1;stroke:none"
       d="m 32,1088.3622 c -17.673112,0 -32,14.3269 -32,32 0,1.7016 0.1504317,3.3702 0.40625,5 2.4011919,-15.2973 15.622214,-21 31.59375,-21 15.971536,0 29.192558,5.7027 31.59375,21 0.255818,-1.6298 0.40625,-3.2984 0.40625,-5 0,-17.6731 -14.326888,-32 -32,-32 z"
       id="path3766"
       inkscape:connector-curvature="0"
       sodipodi:nodetypes="sscscss" />
    <path
       style="fill:#0c510c;fill-opacity:1;stroke:none"
       d="m 32,1088.3622 c -17.673112,0 -32,14.3269 -32,32 0,1.0087 0.03369,2.0151 0.125,3 1.508398,-16.2705 15.21062,-23 31.875,-23 16.66438,0 30.366602,6.7295 31.875,23 0.09131,-0.9849 0.125,-1.9913 0.125,-3 0,-17.6731 -14.326888,-32 -32,-32 z"
       id="path3768"
       inkscape:connector-curvature="0"
       sodipodi:nodetypes="sscscss" />
    <path
       style="fill:#835230;fill-opacity:1;stroke:#000000;stroke-width:1px;stroke-linecap:butt;stroke-linejoin:miter;stroke-opacity:1"
       d="m -162.27985,896.80908 290.16631,-3.283 -8.33376,51.01267 -282.33763,1.2627 z"
       id="path3771"
       inkscape:connector-curvature="0" />
    <path
       style="fill:#043d04;fill-opacity:1;stroke:none"
       d="m -158.23924,885.94993 276.7818,0 -6.56599,17.67765 -13.131992,5.3033 -14.14213,-6.8185 -9.84899,7.8287 -16.66752,-6.8186 -11.86929,7.8287 -20.96066,-8.3337 -4.29315,6.0609 -15.4048303,-5.3033 -14.89975,7.8286 -17.1725897,-9.3439 -11.11168,9.0914 -11.61675,-12.3744 -7.82869,9.849 -16.162441,-8.8388 -7.323606,6.3134 -17.677668,-6.0609 -9.091373,6.8186 -13.63706,-5.0508 -8.08122,6.566 -11.86929,-6.8185 -5.80838,7.3236 -12.37437,-7.8287 z"
       id="path2995"
       inkscape:connector-curvature="0" />
    <path
       style="fill:#000000;stroke:#000000;stroke-width:1px;stroke-linecap:butt;stroke-linejoin:miter;stroke-opacity:1"
       d="m -153.18848,880.64663 263.39728,-1.76777 -0.75762,10.6066 -37.375642,-4.04061 -29.7995,2.27284 -31.56727,-1.26269 -28.03173,3.53554 -54.043165,-3.03046 -15.909902,1.51523 -32.324881,-2.27285 -26.76904,3.283 -11.61676,1.26272 z"
       id="path2991"
       inkscape:connector-curvature="0" />
    <path
       style="fill:#000000;stroke:#000000;stroke-width:1px;stroke-linecap:butt;stroke-linejoin:miter;stroke-opacity:1"
       d="m -154.70371,945.04385 32.07234,-4.0406 39.143413,3.0304 30.052035,-2.2728 26.76905,4.0406 25.5063497,-5.8084 18.4352803,4.0406 28.28427,-3.283 28.03174,4.5457 36.870562,-6.0609 0.75762,15.9099 -265.67012,1.0101 z"
       id="path3769"
       inkscape:connector-curvature="0" />
    <path
       style="fill:#6d4428;fill-opacity:1;stroke:none"
       d="m -137.02604,919.79005 18.68782,-5.80837 26.263966,8.08117 15.404827,-7.07107 -10.354064,14.14217 -29.799499,-7.8287 z"
       id="path3773"
       inkscape:connector-curvature="0"
       sodipodi:nodetypes="ccccccc" />
    <path
       style="fill:#6d4428;fill-opacity:1;stroke:none"
       d="m -64.547597,928.12375 16.920055,-11.36417 19.44544,4.54567 17.17259,-3.78807 -18.68782,14.14207 -15.9099,-3.788 z"
       id="path3775"
       inkscape:connector-curvature="0" />
    <path
       style="fill:#6d4428;fill-opacity:1;stroke:none"
       d="m 9.4460777,916.75958 20.9606703,5.30327 25.25381,-7.57607 21.46574,8.33367 -19.69797,4.0406 -27.27412,5.5559 z"
       id="path3777"
       inkscape:connector-curvature="0" />
    <path
       style="fill:#835230;stroke:none;stroke-width:1px;stroke-linecap:butt;stroke-linejoin:miter;stroke-opacity:1;fill-opacity:1"
       d="M 31.240762,0.53896111 12.753176,6.8001121 3.4092648,17.91179 0.50507627,32.401166 3.788072,47.458752 14.142136,58.696699 32.250258,63.52359 48.487322,59.328044 58.841386,49.352788 63.450206,31.959224 58.841386,15.26014 48.992398,5.0323452 z"
       id="path3007"
       inkscape:connector-curvature="0"
       transform="translate(0,988.36218)"
       sodipodi:nodetypes="ccccccccccccc" />
    <path
       style="fill:#043d04;fill-opacity:1;stroke:none"
       d="M 31.25,0.24999997 12.142857,6.6785714 2.8571429,18.017857 0.26785714,32.035714 3.3035714,47.839286 5,31.053571 10.982143,36.5 13.214286,18.910714 20.803571,23.017857 25.892857,9.0892857 31.964286,18.464286 36.160714,9.4464285 43.303571,20.964286 49.375,17.482143 52.767857,33.285714 56.25,29.089285 59.196429,49.535714 63.79147,31.547351 59.196429,14.625 49.017857,4.5357143 z"
       id="path3778"
       inkscape:connector-curvature="0"
       transform="translate(0,988.36218)"
       sodipodi:nodetypes="ccccccccccccccccccccc" />
    <path
       style="fill:#000000;fill-opacity:1;stroke:none"
       d="M 31.15625 0.0625 L 11.4375 6.40625 L 2.40625 17.84375 L 0.03125 32 L 3.21875 48.03125 L 13.65625 59.09375 L 32.3125 64 L 48.65625 59.8125 L 59.28125 49.8125 L 63.96875 31.53125 L 59.65625 14.4375 L 48.9375 4.34375 L 31.15625 0.0625 z M 39.28125 5.03125 L 50.625 10.21875 L 58.09375 21.6875 L 58.84375 39 L 52.90625 51.875 L 39.03125 58.5625 L 24.5 57.9375 L 11.375 50.625 L 5.1875 40.125 L 5.0625 26 L 10.21875 13.5 L 25.5 6.28125 L 39.28125 5.03125 z "
       transform="translate(0,988.36218)"
       id="path3782" />
    <path
       sodipodi:nodetypes="ccccccccccccc"
       inkscape:connector-curvature="0"
       id="path3786"
       d="m 91.42857,994.77289 19.73214,-6.33928 17.76786,4.28571 10.71429,10.08928 4.31681,17.0802 -4.67396,18.277 -10.625,10 -16.33928,4.1964 -18.66072,-4.9107 -10.44642,-11.0715 -3.19804,-16.0083 2.39446,-14.1702 z"
       style="fill:#0000ff;fill-opacity:1;stroke:none" />
  </g>
</svg>
