<?xml version="1.0" encoding="UTF-8" standalone="no"?>
<!-- Created with Inkscape (http://www.inkscape.org/) -->

<svg
   xmlns:dc="http://purl.org/dc/elements/1.1/"
   xmlns:cc="http://creativecommons.org/ns#"
   xmlns:rdf="http://www.w3.org/1999/02/22-rdf-syntax-ns#"
   xmlns:svg="http://www.w3.org/2000/svg"
   xmlns="http://www.w3.org/2000/svg"
   xmlns:sodipodi="http://sodipodi.sourceforge.net/DTD/sodipodi-0.dtd"
   xmlns:inkscape="http://www.inkscape.org/namespaces/inkscape"
   width="256"
   height="64"
   id="svg2"
   version="1.1"
   inkscape:version="0.48.2 r9819"
   sodipodi:docname="ground_snow_line.svg"
   inkscape:export-filename="C:\Users\Muffin\Documents\GitHub\Rollabout\Assets\Art\Terrain\ground_snow_line.png"
   inkscape:export-xdpi="90"
   inkscape:export-ydpi="90">
  <defs
     id="defs4" />
  <sodipodi:namedview
     id="base"
     pagecolor="#ffffff"
     bordercolor="#666666"
     borderopacity="1.0"
     inkscape:pageopacity="0.0"
     inkscape:pageshadow="2"
     inkscape:zoom="2.8"
     inkscape:cx="34.470869"
     inkscape:cy="97.911113"
     inkscape:document-units="px"
     inkscape:current-layer="layer1"
     showgrid="false"
     inkscape:window-width="1680"
     inkscape:window-height="988"
     inkscape:window-x="-8"
     inkscape:window-y="-8"
     inkscape:window-maximized="1" />
  <metadata
     id="metadata7">
    <rdf:RDF>
      <cc:Work
         rdf:about="">
        <dc:format>image/svg+xml</dc:format>
        <dc:type
           rdf:resource="http://purl.org/dc/dcmitype/StillImage" />
        <dc:title></dc:title>
      </cc:Work>
    </rdf:RDF>
  </metadata>
  <g
     inkscape:label="Layer 1"
     inkscape:groupmode="layer"
     id="layer1"
     transform="translate(0,-988.36218)">
    <rect
       style="fill:#efffff;fill-opacity:1;stroke:none"
       id="rect2999"
       width="256"
       height="64"
       x="2.328125e-006"
       y="988.36218"
       ry="0" />
    <rect
       ry="0"
       y="1044.3622"
       x="2.328125e-006"
       height="8"
       width="256"
       id="rect3001"
       style="fill:#deefef;fill-opacity:1;stroke:none" />
    <path
       style="fill:#ececec;fill-opacity:1;stroke:none"
       d="m 0,988.36221 256,0 0,19.99999 c -8.17055,3.1096 -16.5044,6.2597 -24.93134,6.2927 -12.13778,0.048 -24.46869,-4.2225 -36.78295,-6.2927 -10.62577,2.9822 -21.07628,6.0365 -31.42098,5.9269 -12.07417,-0.128 -24.00418,-3.8418 -35.90044,-5.9269 -10.18299,2.7409 -20.11123,6.017 -29.832598,6.1036 -11.323138,0.1008 -22.365621,-3.4121 -33.203121,-6.1036 -11.9378,2.8719 -23.756065,6.7078 -35.355207,6.6446 C 18.876365,1014.954 9.3325135,1011.5739 0,1008.3622 z"
       id="rect3013"
       inkscape:connector-curvature="0"
       sodipodi:nodetypes="cccscscscscc" />
    <path
       style="fill:#ffffff;fill-opacity:1;stroke:none"
       d="m 0,988.36221 256,0 0,15.99999 c -19.21769,8.0255 -40.27861,4.07 -61.35714,0 -22.04973,5.9775 -44.44054,4.4511 -66.96429,0 -22.17028,4.8349 -43.422099,5.6287 -63.214289,0 -21.17027,3.8139 -42.362359,7.3659 -64.464281,0 z"
       id="rect3015"
       inkscape:connector-curvature="0"
       sodipodi:nodetypes="cccccccc" />
  </g>
</svg>
