<?xml version="1.0" encoding="UTF-8" standalone="no"?>
<!-- Created with Inkscape (http://www.inkscape.org/) -->

<svg
   xmlns:dc="http://purl.org/dc/elements/1.1/"
   xmlns:cc="http://creativecommons.org/ns#"
   xmlns:rdf="http://www.w3.org/1999/02/22-rdf-syntax-ns#"
   xmlns:svg="http://www.w3.org/2000/svg"
   xmlns="http://www.w3.org/2000/svg"
   xmlns:sodipodi="http://sodipodi.sourceforge.net/DTD/sodipodi-0.dtd"
   xmlns:inkscape="http://www.inkscape.org/namespaces/inkscape"
   width="64"
   height="64"
   id="svg2"
   version="1.1"
   inkscape:version="0.48.2 r9819"
   sodipodi:docname="ground_snow_circle.svg"
   inkscape:export-filename="C:\Users\Muffin\Documents\GitHub\Rollabout\Assets\Art\Terrain\ground_snow_circle.png"
   inkscape:export-xdpi="90"
   inkscape:export-ydpi="90">
  <defs
     id="defs4" />
  <sodipodi:namedview
     id="base"
     pagecolor="#ffffff"
     bordercolor="#666666"
     borderopacity="1.0"
     inkscape:pageopacity="0.0"
     inkscape:pageshadow="2"
     inkscape:zoom="5.6"
     inkscape:cx="52.98387"
     inkscape:cy="45.40552"
     inkscape:document-units="px"
     inkscape:current-layer="layer1"
     showgrid="false"
     inkscape:window-width="1680"
     inkscape:window-height="988"
     inkscape:window-x="-8"
     inkscape:window-y="-8"
     inkscape:window-maximized="1" />
  <metadata
     id="metadata7">
    <rdf:RDF>
      <cc:Work
         rdf:about="">
        <dc:format>image/svg+xml</dc:format>
        <dc:type
           rdf:resource="http://purl.org/dc/dcmitype/StillImage" />
        <dc:title />
      </cc:Work>
    </rdf:RDF>
  </metadata>
  <g
     inkscape:label="Layer 1"
     inkscape:groupmode="layer"
     id="layer1"
     transform="translate(0,-988.36218)">
    <path
       sodipodi:type="arc"
       style="fill:#efffff;fill-opacity:1;stroke:none"
       id="path2985"
       sodipodi:cx="10.892858"
       sodipodi:cy="25.607143"
       sodipodi:rx="29.642857"
       sodipodi:ry="29.642857"
       d="m 40.535714,25.607143 a 29.642857,29.642857 0 1 1 -59.285713,0 29.642857,29.642857 0 1 1 59.285713,0 z"
       transform="matrix(1.0795181,0,0,1.0795181,20.240963,992.71881)" />
    <path
       inkscape:connector-curvature="0"
       style="fill:#deefef;fill-opacity:1;stroke:none"
       d="m 0.25,1016.3622 c -0.163109,1.3093 -0.25,2.6466 -0.25,4 0,17.6731 14.326888,32 32,32 17.673112,0 32,-14.3269 32,-32 0,-1.3534 -0.08689,-2.6907 -0.25,-4 -1.966806,15.787 -15.430298,28 -31.75,28 -16.319702,0 -29.783194,-12.213 -31.75,-28 z"
       id="path3770" />
    <path
       style="fill:#ececec;fill-opacity:1;stroke:none"
       d="m 32,988.36219 c -17.673112,0 -32,14.32691 -32,32.00001 0,1.7016 0.150432,3.3703 0.40625,5 2.401192,-15.2972 15.622214,-17 31.59375,-17 15.971536,0 29.192558,1.7028 31.59375,17 0.255818,-1.6297 0.40625,-3.2984 0.40625,-5 0,-17.6731 -14.326888,-32.00001 -32,-32.00001 z"
       id="path3766"
       inkscape:connector-curvature="0"
       sodipodi:nodetypes="sscscss" />
    <path
       style="fill:#ffffff;fill-opacity:1;stroke:none"
       d="m 32,988.36219 c -17.673112,0 -32,14.32691 -32,32.00001 0,1.0087 0.03369,2.0151 0.125,3 1.508398,-16.2705 15.21062,-19 31.875,-19 16.66438,0 30.366602,2.7295 31.875,19 0.09131,-0.9849 0.125,-1.9913 0.125,-3 0,-17.6731 -14.326888,-32.00001 -32,-32.00001 z"
       id="path3768"
       inkscape:connector-curvature="0"
       sodipodi:nodetypes="sscscss" />
  </g>
</svg>
