<?xml version="1.0" encoding="UTF-8" standalone="no"?>
<!-- Created with Inkscape (http://www.inkscape.org/) -->

<svg
   xmlns:dc="http://purl.org/dc/elements/1.1/"
   xmlns:cc="http://creativecommons.org/ns#"
   xmlns:rdf="http://www.w3.org/1999/02/22-rdf-syntax-ns#"
   xmlns:svg="http://www.w3.org/2000/svg"
   xmlns="http://www.w3.org/2000/svg"
   xmlns:sodipodi="http://sodipodi.sourceforge.net/DTD/sodipodi-0.dtd"
   xmlns:inkscape="http://www.inkscape.org/namespaces/inkscape"
   width="256"
   height="64"
   id="svg2"
   version="1.1"
   inkscape:version="0.48.2 r9819"
   sodipodi:docname="ground_stonebrick_line.svg"
   inkscape:export-filename="C:\Users\Muffin\Documents\GitHub\Rollabout\Assets\Art\Terrain\ground_stonebrick_line.png"
   inkscape:export-xdpi="90"
   inkscape:export-ydpi="90">
  <defs
     id="defs4" />
  <sodipodi:namedview
     id="base"
     pagecolor="#ffffff"
     bordercolor="#666666"
     borderopacity="1.0"
     inkscape:pageopacity="0.0"
     inkscape:pageshadow="2"
     inkscape:zoom="3.959798"
     inkscape:cx="130.22349"
     inkscape:cy="24.355006"
     inkscape:document-units="px"
     inkscape:current-layer="layer1"
     showgrid="false"
     inkscape:window-width="1680"
     inkscape:window-height="988"
     inkscape:window-x="-8"
     inkscape:window-y="-8"
     inkscape:window-maximized="1" />
  <metadata
     id="metadata7">
    <rdf:RDF>
      <cc:Work
         rdf:about="">
        <dc:format>image/svg+xml</dc:format>
        <dc:type
           rdf:resource="http://purl.org/dc/dcmitype/StillImage" />
        <dc:title></dc:title>
      </cc:Work>
    </rdf:RDF>
  </metadata>
  <g
     inkscape:label="Layer 1"
     inkscape:groupmode="layer"
     id="layer1"
     transform="translate(0,-988.36218)">
    <path
       style="fill:#241c1c;stroke:none;stroke-width:1px;stroke-linecap:butt;stroke-linejoin:miter;stroke-opacity:1;fill-opacity:1"
       d="M -2.8571429,10.25 265,6.4999999 262.32143,59.357143 -5.9346462,57.686547 z"
       id="path3840"
       inkscape:connector-curvature="0"
       transform="translate(0,988.36218)" />
    <path
       style="fill:#483737;stroke:#000000;stroke-width:2;stroke-linecap:butt;stroke-linejoin:miter;stroke-opacity:1;stroke-miterlimit:4;stroke-dasharray:none"
       d="m 2.1465742,990.74288 c 1.2550751,-2.65248 27.4195968,-2.21771 31.0621908,-0.12627 2.555852,1.46748 -0.264339,8.70079 0.505077,11.11169 1.126518,3.5298 -0.853106,9.1868 -1.894037,10.2278 -1.558587,1.5586 -10.540929,2.4951 -13.51079,1.0101 -11.415504,-1.2013 -8.052115,0.8516 -15.4048265,-3.6618 -2.60605234,-2.606 -1.8900671,-16.57973 -0.7576143,-18.56152 z"
       id="path3040"
       inkscape:connector-curvature="0"
       sodipodi:nodetypes="csssccc" />
    <path
       style="fill:#483737;stroke:#000000;stroke-width:2;stroke-linecap:butt;stroke-linejoin:miter;stroke-miterlimit:4;stroke-opacity:1;stroke-dasharray:none"
       d="m 38.259528,1.8756184 c 5.433598,0.016356 35.726237,-2.53329045 39.143411,0.8838834 1.221815,1.2218158 1.136421,20.8001122 1.136421,24.1173922 0,2.192775 -1.212517,9.925084 -2.777919,11.490485 -0.985855,0.985856 -35.826486,3.064387 -37.249375,1.641498 C 36.090177,37.586988 33.010215,3.2780752 38.259528,1.8756184 z"
       id="path3042"
       inkscape:connector-curvature="0"
       transform="translate(0,988.36218)"
       sodipodi:nodetypes="cssssc" />
    <path
       style="fill:#483737;stroke:#000000;stroke-width:2;stroke-linecap:butt;stroke-linejoin:miter;stroke-miterlimit:4;stroke-opacity:1;stroke-dasharray:none"
       d="m 38.00699,62.484771 c 0.400849,-3.967459 -1.128755,-16.422646 0.757614,-18.309014 1.482711,-1.482712 21.575433,-1.136422 25.75889,-1.136422 2.463639,0 9.936752,-2.942694 11.237947,-1.641498 0.998429,0.998429 2.254908,8.351694 1.136422,9.47018 -2.320475,2.320475 3.824551,9.054893 1.515228,11.364216 -0.892857,0.892857 -4.419417,1.010153 -5.682108,1.010153 -7.851045,0 -13.650033,-0.252539 -20.455589,-0.252539 -5.17993,0 -12.332123,0.384088 -14.268404,-0.505076 z"
       id="path3044"
       inkscape:connector-curvature="0"
       transform="translate(0,988.36218)"
       sodipodi:nodetypes="csssssssc" />
    <path
       style="fill:#483737;stroke:#000000;stroke-width:2;stroke-linecap:butt;stroke-linejoin:miter;stroke-miterlimit:4;stroke-opacity:1;stroke-dasharray:none"
       d="m 1.2626907,62.358502 c 3.9263822,0.405796 32.9419523,1.403235 34.8502623,-0.505076 0.600373,-0.600372 -1.338003,-33.433625 -2.525381,-34.345187 -3.261504,-2.503889 -2.954675,-0.429294 -7.449875,1.136422 -2.09817,0.73081 -11.787973,-0.883884 -14.268405,-0.883884 -5.7472469,0 -8.8405269,-5.110074 -10.3540632,0.505077 -0.4685825,1.738419 -0.5195179,33.092142 -0.2525381,34.092648 z"
       id="path3046"
       inkscape:connector-curvature="0"
       transform="translate(0,988.36218)"
       sodipodi:nodetypes="csssssc" />
    <path
       style="fill:#483737;stroke:#000000;stroke-width:2;stroke-linecap:butt;stroke-linejoin:miter;stroke-miterlimit:4;stroke-opacity:1;stroke-dasharray:none"
       d="m 81.31728,24.982858 c 4.234729,-1.214851 10.625603,1.442594 14.520943,-0.505076 1.376051,-0.688026 3.574883,0.295998 4.924497,-0.378808 8.6055,-4.30275 10.04911,3.587947 19.82424,-6.187184 2.31686,-2.316858 3.86162,-14.4473949 2.39912,-15.9099026 C 121.29254,0.30835206 83.392952,0.81009934 81.569818,2.6332328 78.023561,6.17949 79.494679,20.122588 81.31728,24.982858 z"
       id="path3048"
       inkscape:connector-curvature="0"
       transform="translate(0,988.36218)"
       sodipodi:nodetypes="csssssc" />
    <path
       style="fill:#483737;stroke:#000000;stroke-width:2;stroke-linecap:butt;stroke-linejoin:miter;stroke-opacity:1;stroke-miterlimit:4;stroke-dasharray:none"
       d="m 80.938473,63.116117 c -0.510972,-2.723293 -4.557862,-28.398365 2.272843,-35.229071 3.223103,-3.223103 13.68368,1.847416 16.541248,-1.010152 1.976796,-1.976798 15.849926,-3.974322 18.687826,-1.136422 3.95631,3.956314 -0.34562,12.945821 2.14657,17.930208 1.55959,3.119176 8.85456,19.708199 0,19.824244 -6.64437,0.08708 -35.06301,0.881125 -39.648487,-0.378807 z"
       id="path3050"
       inkscape:connector-curvature="0"
       transform="translate(0,988.36218)"
       sodipodi:nodetypes="csssssc" />
    <path
       style="fill:#483737;stroke:#000000;stroke-width:2;stroke-linecap:butt;stroke-linejoin:miter;stroke-miterlimit:4;stroke-opacity:1;stroke-dasharray:none"
       d="m 124.88011,994.02587 c 0.16288,-1.34553 -0.25656,-2.14952 0.75761,-2.77792 3.86744,-2.39634 33.53299,-2.29809 36.87057,0.12627 3.10782,2.25747 -1.17329,13.60018 0.75761,15.53108 1.15402,1.154 2.61565,10.8952 0.88389,12.6269 -2.78932,2.7893 -11.01668,-0.3475 -13.51079,2.1466 -1.56493,1.5649 -6.72863,2.0203 -9.34391,2.0203 -17.04301,0 -16.41498,-16.7487 -16.41498,-29.67323 z"
       id="path3054"
       inkscape:connector-curvature="0"
       sodipodi:nodetypes="cssssssc" />
    <path
       style="fill:#483737;stroke:#000000;stroke-width:2;stroke-linecap:butt;stroke-linejoin:miter;stroke-miterlimit:4;stroke-opacity:1;stroke-dasharray:none"
       d="m 127.65803,62.863579 c 8.12327,-1.284797 36.61973,1.867924 40.15356,-0.757615 2.39918,-1.782531 -1.38896,-9.269416 -1.38896,-11.743024 0,-4.219904 0.27525,-12.225396 -2.27284,-14.773481 -1.23541,-1.235412 -14.20853,1.831989 -15.9099,2.399113 -3.07781,1.025936 -17.81668,-3.143992 -18.94036,-2.020305 -3.99518,3.995178 -4.20331,20.063821 -1.6415,26.895312 z"
       id="path3056"
       inkscape:connector-curvature="0"
       transform="translate(0,988.36218)"
       sodipodi:nodetypes="csssssc" />
    <path
       style="fill:#483737;stroke:#000000;stroke-width:2;stroke-linecap:butt;stroke-linejoin:miter;stroke-miterlimit:4;stroke-opacity:1;stroke-dasharray:none"
       d="m 166.29637,18.795674 c 0.55121,5.547925 11.21571,-1.894037 17.04632,-1.894037 1.84671,0 9.29029,1.063775 10.35406,0 1.8438,-1.843799 9.84899,1.538518 9.84899,-2.020305 0,-2.12942 2.49421,-10.3852348 0.25254,-12.6269064 -2.49453,-2.49452775 -14.79516,-0.1623941 -18.56156,0.2525381 -5.18248,0.5709376 -14.21845,-3.20668029 -17.04632,-0.3788072 -0.82549,0.8254901 -2.47969,3.237298 -3.283,4.0406102 -2.30577,2.3057699 0.64252,9.6411033 1.38897,12.6269073 z"
       id="path3060"
       inkscape:connector-curvature="0"
       transform="translate(0,988.36218)"
       sodipodi:nodetypes="csssssssc" />
    <path
       style="fill:#483737;stroke:#000000;stroke-width:2;stroke-linecap:butt;stroke-linejoin:miter;stroke-miterlimit:4;stroke-opacity:1;stroke-dasharray:none"
       d="m 169.45309,54.908627 c 0.4033,6.183257 2.7723,8.081221 9.09137,8.081221 4.14457,0 23.2297,1.013968 25.12755,-0.883884 3.76734,-3.767337 3.25897,-36.389511 -0.63135,-40.279833 -3.06266,-3.06266 -7.99266,0.233685 -11.99556,-1.767767 -2.10122,-1.05061 -6.15144,-0.711726 -8.33376,-0.126269 -15.21987,4.083073 -14.87173,21.640527 -13.25825,34.976532 z"
       id="path3064"
       inkscape:connector-curvature="0"
       transform="translate(0,988.36218)"
       sodipodi:nodetypes="csssssc" />
    <path
       style="fill:#483737;stroke:#000000;stroke-width:2;stroke-linecap:butt;stroke-linejoin:miter;stroke-miterlimit:4;stroke-opacity:1;stroke-dasharray:none"
       d="m 211.12188,38.114841 c 9.3405,2.136366 39.74281,2.968091 43.43657,-4.419417 1.32511,-2.650234 -1.90936,-16.399668 -0.88389,-17.425132 2.36569,-2.365689 1.73841,-12.1511787 0.3788,-13.5107902 -3.77838,-3.7783847 -13.63931,1.1352945 -17.9302,-1.0101525 -2.68595,-1.34297334 -10.06094,0.3788072 -13.38453,0.3788072 -2.73231,0 -11.6292,-1.75531561 -14.01586,0.6313453 -5.31704,5.317045 -1.17486,18.7372092 1.76777,24.6224682 1.88984,3.779684 -1.88699,7.71087 0.63134,10.732871 z"
       id="path3066"
       inkscape:connector-curvature="0"
       transform="translate(0,988.36218)"
       sodipodi:nodetypes="csssssssc" />
    <path
       style="fill:#483737;stroke:#000000;stroke-width:2;stroke-linecap:butt;stroke-linejoin:miter;stroke-miterlimit:4;stroke-opacity:1;stroke-dasharray:none"
       d="m 207.96516,62.232233 c 1.77966,-0.02904 24.92712,1.084297 25.12754,0.883884 1.52493,-1.524934 19.39119,1.586049 21.33947,-2.77792 0.95918,-2.148469 0.72967,-18.095066 0,-20.32932 -0.35286,-1.080471 -3.19752,-0.146667 -4.41941,-0.757614 -0.86877,-0.434381 -1.73859,0.757614 -2.27285,0.757614 -1.03733,0 -14.50952,3.110831 -17.29886,4.04061 -3.45873,1.152912 -12.20265,-5.348748 -15.40483,-2.146574 -1.25638,1.256384 -3.20249,3.076224 -4.54569,4.419418 -1.87059,1.870591 -5.07166,13.787995 -2.52537,15.909902 z"
       id="path3070"
       inkscape:connector-curvature="0"
       transform="translate(0,988.36218)"
       sodipodi:nodetypes="ccsssssssc" />
  </g>
</svg>
