<?xml version="1.0" encoding="UTF-8" standalone="no"?>
<!-- Created with Inkscape (http://www.inkscape.org/) -->

<svg
   xmlns:dc="http://purl.org/dc/elements/1.1/"
   xmlns:cc="http://creativecommons.org/ns#"
   xmlns:rdf="http://www.w3.org/1999/02/22-rdf-syntax-ns#"
   xmlns:svg="http://www.w3.org/2000/svg"
   xmlns="http://www.w3.org/2000/svg"
   xmlns:sodipodi="http://sodipodi.sourceforge.net/DTD/sodipodi-0.dtd"
   xmlns:inkscape="http://www.inkscape.org/namespaces/inkscape"
   width="64"
   height="64"
   id="svg2"
   version="1.1"
   inkscape:version="0.48.2 r9819"
   sodipodi:docname="ground_grass_circle.svg"
   inkscape:export-filename="C:\Users\Muffin\Documents\GitHub\Rollabout\Assets\Art\Terrain\ground_grass_circle.png"
   inkscape:export-xdpi="90"
   inkscape:export-ydpi="90">
  <defs
     id="defs4" />
  <sodipodi:namedview
     id="base"
     pagecolor="#ffffff"
     bordercolor="#666666"
     borderopacity="1.0"
     inkscape:pageopacity="0.0"
     inkscape:pageshadow="2"
     inkscape:zoom="5.6"
     inkscape:cx="-16.873016"
     inkscape:cy="48.493326"
     inkscape:document-units="px"
     inkscape:current-layer="layer1"
     showgrid="false"
     inkscape:window-width="1680"
     inkscape:window-height="988"
     inkscape:window-x="-8"
     inkscape:window-y="-8"
     inkscape:window-maximized="1" />
  <metadata
     id="metadata7">
    <rdf:RDF>
      <cc:Work
         rdf:about="">
        <dc:format>image/svg+xml</dc:format>
        <dc:type
           rdf:resource="http://purl.org/dc/dcmitype/StillImage" />
        <dc:title></dc:title>
      </cc:Work>
    </rdf:RDF>
  </metadata>
  <g
     inkscape:label="Layer 1"
     inkscape:groupmode="layer"
     id="layer1"
     transform="translate(0,-988.36218)">
    <path
       sodipodi:type="arc"
       style="fill:#784421;fill-opacity:1;stroke:none"
       id="path2985"
       sodipodi:cx="10.892858"
       sodipodi:cy="25.607143"
       sodipodi:rx="29.642857"
       sodipodi:ry="29.642857"
       d="m 40.535714,25.607143 a 29.642857,29.642857 0 1 1 -59.285713,0 29.642857,29.642857 0 1 1 59.285713,0 z"
       transform="matrix(1.0795181,0,0,1.0795181,20.240963,992.7188)" />
    <path
       style="fill:#64381a;fill-opacity:1;stroke:none"
       d="M 0.25 28 C 0.086890692 29.309231 -4.8473702e-018 30.64659 0 32 C 0 49.673112 14.326888 64 32 64 C 49.673112 64 64 49.673112 64 32 C 64 30.64659 63.913109 29.309231 63.75 28 C 61.783194 43.786976 48.319702 56 32 56 C 15.680298 56 2.2168059 43.786976 0.25 28 z "
       id="path3770"
       transform="translate(0,988.36218)" />
    <path
       style="fill:#0e430e;fill-opacity:1;stroke:none"
       d="M 32,0 C 14.326888,0 0,14.326888 0,32 0,33.701576 0.1504317,35.370263 0.40625,37 2.8074419,21.702768 16.028464,16 32,16 47.971536,16 61.192558,21.702768 63.59375,37 63.849568,35.370263 64,33.701576 64,32 64,14.326888 49.673112,0 32,0 z"
       transform="translate(0,988.36218)"
       id="path3766"
       inkscape:connector-curvature="0"
       sodipodi:nodetypes="sscscss" />
    <path
       style="fill:#0c510c;fill-opacity:1;stroke:none"
       d="m 32,988.36218 c -17.673112,0 -32,14.32692 -32,32.00002 0,1.0087 0.03369,2.0151 0.125,3 1.508398,-16.2705 15.21062,-23 31.875,-23 16.66438,0 30.366602,6.7295 31.875,23 0.09131,-0.9849 0.125,-1.9913 0.125,-3 0,-17.6731 -14.326888,-32.00002 -32,-32.00002 z"
       id="path3768"
       inkscape:connector-curvature="0"
       sodipodi:nodetypes="sscscss" />
  </g>
</svg>
