<?xml version="1.0" encoding="UTF-8" standalone="no"?>
<!-- Created with Inkscape (http://www.inkscape.org/) -->

<svg
   xmlns:dc="http://purl.org/dc/elements/1.1/"
   xmlns:cc="http://creativecommons.org/ns#"
   xmlns:rdf="http://www.w3.org/1999/02/22-rdf-syntax-ns#"
   xmlns:svg="http://www.w3.org/2000/svg"
   xmlns="http://www.w3.org/2000/svg"
   xmlns:sodipodi="http://sodipodi.sourceforge.net/DTD/sodipodi-0.dtd"
   xmlns:inkscape="http://www.inkscape.org/namespaces/inkscape"
   width="64"
   height="64"
   id="svg2"
   version="1.1"
   inkscape:version="0.48.2 r9819"
   sodipodi:docname="ground_stonebrick_circle.svg"
   inkscape:export-filename="C:\Users\Muffin\Documents\GitHub\Rollabout\Assets\Art\Terrain\ground_stonebrick_circle.png"
   inkscape:export-xdpi="90"
   inkscape:export-ydpi="90">
  <defs
     id="defs4" />
  <sodipodi:namedview
     id="base"
     pagecolor="#ffffff"
     bordercolor="#666666"
     borderopacity="1.0"
     inkscape:pageopacity="0.0"
     inkscape:pageshadow="2"
     inkscape:zoom="11.2"
     inkscape:cx="32.246475"
     inkscape:cy="33.28593"
     inkscape:document-units="px"
     inkscape:current-layer="layer1"
     showgrid="false"
     inkscape:window-width="1680"
     inkscape:window-height="988"
     inkscape:window-x="-8"
     inkscape:window-y="-8"
     inkscape:window-maximized="1" />
  <metadata
     id="metadata7">
    <rdf:RDF>
      <cc:Work
         rdf:about="">
        <dc:format>image/svg+xml</dc:format>
        <dc:type
           rdf:resource="http://purl.org/dc/dcmitype/StillImage" />
        <dc:title></dc:title>
      </cc:Work>
    </rdf:RDF>
  </metadata>
  <g
     inkscape:label="Layer 1"
     inkscape:groupmode="layer"
     id="layer1"
     transform="translate(0,-988.36218)">
    <path
       style="fill:#241c1c;fill-opacity:1;stroke:none"
       d="m -76.922497,911.71913 267.857147,-3.75 -2.67857,52.85714 L -80,959.15568 z"
       id="path3840"
       inkscape:connector-curvature="0" />
    <path
       style="fill:#483737;stroke:#000000;stroke-width:2;stroke-linecap:butt;stroke-linejoin:miter;stroke-miterlimit:4;stroke-opacity:1;stroke-dasharray:none"
       d="m -71.91878,903.84983 c 1.255075,-2.65247 27.419597,-2.21771 31.062191,-0.12627 2.555852,1.46749 -0.264339,8.70079 0.505077,11.11169 1.126518,3.5298 -0.853106,9.1868 -1.894037,10.2278 -1.558587,1.5586 -10.540929,2.4951 -13.51079,1.0101 -11.415504,-1.2013 -8.052115,0.8516 -15.404826,-3.6618 -2.606053,-2.606 -1.890068,-16.57973 -0.757615,-18.56152 z"
       id="path3040"
       inkscape:connector-curvature="0"
       sodipodi:nodetypes="csssccc" />
    <path
       style="fill:#483737;stroke:#000000;stroke-width:2;stroke-linecap:butt;stroke-linejoin:miter;stroke-miterlimit:4;stroke-opacity:1;stroke-dasharray:none"
       d="m -35.805826,903.34475 c 5.433598,0.0163 35.726237,-2.53329 39.143411,0.88388 1.221815,1.22182 1.136421,20.80011 1.136421,24.11739 0,2.19278 -1.212517,9.92509 -2.777919,11.49049 -0.985855,0.98585 -35.826486,3.06439 -37.249375,1.6415 -2.421889,-2.42189 -5.501851,-36.7308 -0.252538,-38.13326 z"
       id="path3042"
       inkscape:connector-curvature="0"
       sodipodi:nodetypes="cssssc" />
    <path
       style="fill:#483737;stroke:#000000;stroke-width:2;stroke-linecap:butt;stroke-linejoin:miter;stroke-miterlimit:4;stroke-opacity:1;stroke-dasharray:none"
       d="m -36.058364,963.9539 c 0.400849,-3.96746 -1.128755,-16.42265 0.757614,-18.30901 1.482711,-1.48272 21.575433,-1.13643 25.75889,-1.13643 2.463639,0 9.936752,-2.94269 11.237947,-1.64149 0.998429,0.99843 2.254908,8.35169 1.136422,9.47018 -2.320475,2.32047 3.824551,9.05489 1.515228,11.36421 -0.892857,0.89286 -4.419417,1.01016 -5.682108,1.01016 -7.851045,0 -13.650033,-0.25254 -20.455589,-0.25254 -5.17993,0 -12.332123,0.38408 -14.268404,-0.50508 z"
       id="path3044"
       inkscape:connector-curvature="0"
       sodipodi:nodetypes="csssssssc" />
    <path
       style="fill:#483737;stroke:#000000;stroke-width:2;stroke-linecap:butt;stroke-linejoin:miter;stroke-miterlimit:4;stroke-opacity:1;stroke-dasharray:none"
       d="m -72.802663,963.82763 c 3.926382,0.4058 32.941952,1.40324 34.850262,-0.50507 0.600373,-0.60038 -1.338003,-33.43363 -2.525381,-34.34519 -3.261504,-2.50389 -2.954675,-0.4293 -7.449875,1.13642 -2.09817,0.73081 -11.787973,-0.88388 -14.268405,-0.88388 -5.747247,0 -8.840527,-5.11008 -10.354063,0.50507 -0.468583,1.73842 -0.519518,33.09215 -0.252538,34.09265 z"
       id="path3046"
       inkscape:connector-curvature="0"
       sodipodi:nodetypes="csssssc" />
    <path
       style="fill:#483737;stroke:#000000;stroke-width:2;stroke-linecap:butt;stroke-linejoin:miter;stroke-miterlimit:4;stroke-opacity:1;stroke-dasharray:none"
       d="m 7.251926,926.45199 c 4.234729,-1.21485 10.625603,1.44259 14.520943,-0.50508 1.376051,-0.68802 3.574883,0.296 4.924497,-0.37881 8.6055,-4.30275 10.04911,3.58795 19.82424,-6.18718 2.31686,-2.31686 3.86162,-14.44739 2.39912,-15.9099 -1.69354,-1.69354 -39.593128,-1.19179 -41.416262,0.63134 -3.546257,3.54626 -2.075139,17.48936 -0.252538,22.34963 z"
       id="path3048"
       inkscape:connector-curvature="0"
       sodipodi:nodetypes="csssssc" />
    <path
       style="fill:#483737;stroke:#000000;stroke-width:2;stroke-linecap:butt;stroke-linejoin:miter;stroke-miterlimit:4;stroke-opacity:1;stroke-dasharray:none"
       d="m 6.873119,964.58525 c -0.510972,-2.7233 -4.557862,-28.39837 2.272843,-35.22907 3.223103,-3.22311 13.68368,1.84741 16.541248,-1.01016 1.976796,-1.97679 15.849926,-3.97432 18.687826,-1.13642 3.95631,3.95632 -0.34562,12.94582 2.14657,17.93021 1.55959,3.11918 8.85456,19.7082 0,19.82424 -6.64437,0.0871 -35.06301,0.88113 -39.648487,-0.3788 z"
       id="path3050"
       inkscape:connector-curvature="0"
       sodipodi:nodetypes="csssssc" />
    <path
       style="fill:#483737;stroke:#000000;stroke-width:2;stroke-linecap:butt;stroke-linejoin:miter;stroke-miterlimit:4;stroke-opacity:1;stroke-dasharray:none"
       d="m 50.814756,907.13283 c 0.16288,-1.34554 -0.25656,-2.14953 0.75761,-2.77792 3.86744,-2.39634 33.53299,-2.29809 36.87057,0.12626 3.10782,2.25748 -1.17329,13.60019 0.75761,15.53108 1.15402,1.154 2.61565,10.89521 0.88389,12.6269 -2.78932,2.7893 -11.01668,-0.3475 -13.51079,2.1466 -1.56493,1.5649 -6.72863,2.02031 -9.34391,2.02031 -17.04301,0 -16.41498,-16.7487 -16.41498,-29.67323 z"
       id="path3054"
       inkscape:connector-curvature="0"
       sodipodi:nodetypes="cssssssc" />
    <path
       style="fill:#483737;stroke:#000000;stroke-width:2;stroke-linecap:butt;stroke-linejoin:miter;stroke-miterlimit:4;stroke-opacity:1;stroke-dasharray:none"
       d="m 53.592676,964.33271 c 8.12327,-1.2848 36.61973,1.86792 40.15356,-0.75762 2.39918,-1.78253 -1.38896,-9.26941 -1.38896,-11.74302 0,-4.2199 0.27525,-12.2254 -2.27284,-14.77348 -1.23541,-1.23541 -14.20853,1.83199 -15.9099,2.39911 -3.07781,1.02594 -17.81668,-3.14399 -18.94036,-2.0203 -3.99518,3.99517 -4.20331,20.06382 -1.6415,26.89531 z"
       id="path3056"
       inkscape:connector-curvature="0"
       sodipodi:nodetypes="csssssc" />
    <path
       style="fill:#483737;stroke:#000000;stroke-width:2;stroke-linecap:butt;stroke-linejoin:miter;stroke-miterlimit:4;stroke-opacity:1;stroke-dasharray:none"
       d="m 92.231016,920.2648 c 0.55121,5.54793 11.215714,-1.89403 17.046324,-1.89403 1.84671,0 9.29029,1.06377 10.35406,0 1.8438,-1.8438 9.84899,1.53851 9.84899,-2.02031 0,-2.12942 2.49421,-10.38523 0.25254,-12.6269 -2.49453,-2.49453 -14.79516,-0.1624 -18.56156,0.25253 -5.18248,0.57094 -14.218454,-3.20668 -17.046324,-0.3788 -0.82549,0.82549 -2.47969,3.23729 -3.283,4.04061 -2.30577,2.30577 0.64252,9.6411 1.38897,12.6269 z"
       id="path3060"
       inkscape:connector-curvature="0"
       sodipodi:nodetypes="csssssssc" />
    <path
       style="fill:#483737;stroke:#000000;stroke-width:2;stroke-linecap:butt;stroke-linejoin:miter;stroke-miterlimit:4;stroke-opacity:1;stroke-dasharray:none"
       d="m 95.387736,956.37776 c 0.4033,6.18325 2.7723,8.08122 9.091374,8.08122 4.14457,0 23.2297,1.01397 25.12755,-0.88389 3.76734,-3.76733 3.25897,-36.38951 -0.63135,-40.27983 -3.06266,-3.06266 -7.99266,0.23369 -11.99556,-1.76777 -2.10122,-1.05061 -6.15144,-0.71172 -8.33376,-0.12627 -15.219874,4.08308 -14.871734,21.64053 -13.258254,34.97654 z"
       id="path3064"
       inkscape:connector-curvature="0"
       sodipodi:nodetypes="csssssc" />
    <path
       style="fill:#483737;stroke:#000000;stroke-width:2;stroke-linecap:butt;stroke-linejoin:miter;stroke-miterlimit:4;stroke-opacity:1;stroke-dasharray:none"
       d="m 137.05653,939.58397 c 9.3405,2.13637 39.74281,2.96809 43.43657,-4.41942 1.32511,-2.65023 -1.90936,-16.39966 -0.88389,-17.42513 2.36569,-2.36569 1.73841,-12.15118 0.3788,-13.51079 -3.77838,-3.77838 -13.63931,1.1353 -17.9302,-1.01015 -2.68595,-1.34297 -10.06094,0.37881 -13.38453,0.37881 -2.73231,0 -11.6292,-1.75532 -14.01586,0.63134 -5.31704,5.31705 -1.17486,18.73721 1.76777,24.62247 1.88984,3.77968 -1.88699,7.71087 0.63134,10.73287 z"
       id="path3066"
       inkscape:connector-curvature="0"
       sodipodi:nodetypes="csssssssc" />
    <path
       style="fill:#483737;stroke:#000000;stroke-width:2;stroke-linecap:butt;stroke-linejoin:miter;stroke-miterlimit:4;stroke-opacity:1;stroke-dasharray:none"
       d="m 133.89981,963.70136 c 1.77966,-0.029 24.92712,1.0843 25.12754,0.88389 1.52493,-1.52494 19.39119,1.58605 21.33947,-2.77792 0.95918,-2.14847 0.72967,-18.09507 0,-20.32932 -0.35286,-1.08047 -3.19752,-0.14667 -4.41941,-0.75762 -0.86877,-0.43438 -1.73859,0.75762 -2.27285,0.75762 -1.03733,0 -14.50952,3.11083 -17.29886,4.04061 -3.45873,1.15291 -12.20265,-5.34875 -15.40483,-2.14658 -1.25638,1.25639 -3.20249,3.07623 -4.54569,4.41942 -1.87059,1.87059 -5.07166,13.788 -2.52537,15.9099 z"
       id="path3070"
       inkscape:connector-curvature="0"
       sodipodi:nodetypes="ccsssssssc" />
    <path
       style="fill:#241c1c;stroke:none;stroke-width:1px;stroke-linecap:butt;stroke-linejoin:miter;stroke-opacity:1;fill-opacity:1"
       d="m 7.3214286,34.089286 0.7142857,-13.928572 48.0357147,2.5 L 55.535714,35.25 z"
       id="path3033"
       inkscape:connector-curvature="0"
       transform="translate(0,988.36218)" />
    <path
       style="fill:#483737;fill-opacity:1;stroke:#000000;stroke-width:2;stroke-linecap:butt;stroke-linejoin:miter;stroke-miterlimit:4;stroke-opacity:1;stroke-dasharray:none"
       d="M 17.488266,27.760777 C 13.919214,27.201526 6.6708218,27.991876 4.8613592,27.634508 3.2133975,27.309036 1.2995357,27.137936 1.1770554,25.705702 0.52071449,18.030727 13.741717,5.3588235 18.182746,3.138309 22.187452,1.135956 42.553208,-0.40303848 45.935789,2.9795434 c 3.411126,3.4111251 15.17844,9.5818096 15.17844,15.5004576 0,0.76401 4.368773,9.533314 0.315673,9.533314 -0.51144,0 -2.56165,0.523211 -3.598669,0.757615 -3.313629,0.749001 -9.955233,-1.010157 -13.384521,-1.010157 -2.150737,0 -9.170055,-0.363259 -10.480333,0.947018 C 33.462342,29.211828 19.872292,27.394 17.488266,27.760777 z"
       id="path3029"
       inkscape:connector-curvature="0"
       transform="translate(0,988.36218)"
       sodipodi:nodetypes="csssssssssc" />
    <path
       style="fill:#483737;fill-opacity:1;stroke:#000000;stroke-width:2;stroke-linecap:butt;stroke-linejoin:miter;stroke-miterlimit:4;stroke-opacity:1;stroke-dasharray:none"
       d="M 1.9814632,38.724522 C 1.320552,33.222254 0.13151471,30.975392 2.841054,28.265853 c 0.8718102,-0.87181 5.4519686,1.011042 12.180897,2.219011 5.974104,1.072464 14.05791,1.442793 16.482182,1.442793 5.156688,0 27.460571,-4.054525 29.895131,-1.08412 6.270759,7.650948 -7.381592,21.962883 -10.954771,26.022261 -3.050901,3.466035 -12.565371,5.727833 -15.665025,6.373415 C 29.664351,64.304567 18.861116,60.899011 15.334031,59.135468 7.0858078,55.011356 9.6186008,51.016438 4.0406102,45.438447 1.4678373,43.347582 2.4227188,40.855034 1.9814632,38.724522 z"
       id="path3031"
       inkscape:connector-curvature="0"
       transform="translate(0,988.36218)"
       sodipodi:nodetypes="cssssssscc" />
  </g>
</svg>
