<?xml version="1.0" encoding="UTF-8" standalone="no"?>
<!-- Created with Inkscape (http://www.inkscape.org/) -->

<svg
   xmlns:dc="http://purl.org/dc/elements/1.1/"
   xmlns:cc="http://creativecommons.org/ns#"
   xmlns:rdf="http://www.w3.org/1999/02/22-rdf-syntax-ns#"
   xmlns:svg="http://www.w3.org/2000/svg"
   xmlns="http://www.w3.org/2000/svg"
   xmlns:sodipodi="http://sodipodi.sourceforge.net/DTD/sodipodi-0.dtd"
   xmlns:inkscape="http://www.inkscape.org/namespaces/inkscape"
   width="256"
   height="64"
   id="svg2"
   version="1.1"
   inkscape:version="0.48.2 r9819"
   sodipodi:docname="ground_grass2_line.svg"
   inkscape:export-filename="C:\Users\Muffin\Documents\GitHub\Rollabout\Assets\Art\Terrain\ground_grass_line2.png"
   inkscape:export-xdpi="90"
   inkscape:export-ydpi="90">
  <defs
     id="defs4" />
  <sodipodi:namedview
     id="base"
     pagecolor="#ffffff"
     bordercolor="#666666"
     borderopacity="1.0"
     inkscape:pageopacity="0.0"
     inkscape:pageshadow="2"
     inkscape:zoom="3.959798"
     inkscape:cx="133.67432"
     inkscape:cy="10.069174"
     inkscape:document-units="px"
     inkscape:current-layer="layer1"
     showgrid="false"
     inkscape:window-width="1680"
     inkscape:window-height="988"
     inkscape:window-x="-8"
     inkscape:window-y="-8"
     inkscape:window-maximized="1"
     borderlayer="true" />
  <metadata
     id="metadata7">
    <rdf:RDF>
      <cc:Work
         rdf:about="">
        <dc:format>image/svg+xml</dc:format>
        <dc:type
           rdf:resource="http://purl.org/dc/dcmitype/StillImage" />
        <dc:title></dc:title>
      </cc:Work>
    </rdf:RDF>
  </metadata>
  <g
     inkscape:label="Layer 1"
     inkscape:groupmode="layer"
     id="layer1"
     transform="translate(0,-988.36218)">
    <rect
       style="fill:#784421;fill-opacity:1;stroke:none"
       id="rect2999"
       width="256"
       height="64"
       x="0"
       y="1088.3622"
       ry="0" />
    <rect
       ry="0"
       y="1144.3622"
       x="0"
       height="8"
       width="256"
       id="rect3001"
       style="fill:#64381a;fill-opacity:1;stroke:none" />
    <path
       style="fill:#0e430e;fill-opacity:1;stroke:none"
       d="m 0,1088.3622 256,0 0,16 c -19.93905,7.5885 -40.85056,3.5075 -61.71429,0 -23.02801,6.4629 -44.87576,3.3358 -66.96428,-0.5357 -22.04381,5.9334 -43.250924,5.538 -63.392858,0.5357 -21.917922,5.2728 -43.432899,7.0534 -63.928572,0 z"
       id="rect3013"
       inkscape:connector-curvature="0"
       sodipodi:nodetypes="cccccccc" />
    <path
       style="fill:#0c510c;fill-opacity:1;stroke:none"
       d="m 0,1088.3622 256,0 0,12 c -19.21769,8.0255 -40.27861,4.07 -61.35714,0 -22.04973,5.9775 -44.79768,3.7368 -67.32143,-0.7143 -22.17028,4.8349 -43.064958,6.343 -62.857144,0.7143 -21.170273,3.8139 -42.362364,7.3659 -64.464286,0 z"
       id="rect3015"
       inkscape:connector-curvature="0"
       sodipodi:nodetypes="cccccccc" />
    <g
       id="g3025"
       transform="translate(-320,0)">
      <rect
         style="fill:#784421;fill-opacity:1;stroke:none"
         id="rect3017"
         width="256"
         height="64"
         x="0"
         y="988.36218"
         ry="0" />
      <rect
         ry="0"
         y="1044.3622"
         x="0"
         height="8"
         width="256"
         id="rect3019"
         style="fill:#64381a;fill-opacity:1;stroke:none" />
      <rect
         style="fill:#0e430e;fill-opacity:1;stroke:none"
         id="rect3021"
         width="256"
         height="16"
         x="0"
         y="988.36218"
         ry="0" />
      <rect
         ry="0"
         y="988.36218"
         x="0"
         height="12"
         width="256"
         id="rect3023"
         style="fill:#0c510c;fill-opacity:1;stroke:none" />
    </g>
    <path
       style="fill:#835230;fill-opacity:1;stroke:#000000;stroke-width:1px;stroke-linecap:butt;stroke-linejoin:miter;stroke-opacity:1"
       d="m -11.869293,1001.3495 290.166313,-3.28302 -8.33376,51.01272 -282.337629,1.2627 z"
       id="path3771"
       inkscape:connector-curvature="0" />
    <path
       style="fill:#043d04;fill-opacity:1;stroke:none"
       d="m -7.8286822,990.49034 276.7818022,0 -6.56599,17.67766 -13.13199,5.3033 -14.14213,-6.8185 -9.84899,7.8287 -16.66752,-6.8186 -11.86929,7.8287 -20.96066,-8.3337 -4.29315,6.0609 -15.40483,-5.3033 -14.89975,7.8286 -17.17259,-9.3439 -11.11168,9.0914 -11.61675,-12.3744 -7.828689,9.849 -16.162441,-8.8388 -7.323606,6.3134 -17.677669,-6.0609 -9.091373,6.8186 -13.63706,-5.0508 -8.08122,6.566 -11.8692924,-6.8185 -5.8083776,7.3236 -12.3743686,-7.8287 z"
       id="path2995"
       inkscape:connector-curvature="0" />
    <path
       style="fill:#000000;stroke:#000000;stroke-width:1px;stroke-linecap:butt;stroke-linejoin:miter;stroke-opacity:1"
       d="m -2.7779195,985.18704 263.3972795,-1.76777 -0.75762,10.6066 -37.37564,-4.04061 -29.7995,2.27284 -31.56727,-1.26269 -28.03173,3.53554 -54.043164,-3.03046 -15.909902,1.51523 -32.324882,-2.27285 -26.7690418,3.283 -11.6167543,1.26269 z"
       id="path2991"
       inkscape:connector-curvature="0" />
    <path
       style="fill:#000000;stroke:#000000;stroke-width:1px;stroke-linecap:butt;stroke-linejoin:miter;stroke-opacity:1"
       d="m -4.2931483,1049.5843 32.0723433,-4.0406 39.143411,3.0304 30.052038,-2.2728 26.769046,4.0406 25.50635,-5.8084 18.43528,4.0406 28.28427,-3.283 28.03174,4.5457 36.87056,-6.0609 0.75762,15.9099 -265.6701202,1.0101 z"
       id="path3769"
       inkscape:connector-curvature="0" />
    <path
       style="fill:#6d4428;stroke:none;stroke-width:1px;stroke-linecap:butt;stroke-linejoin:miter;stroke-opacity:1;fill-opacity:1"
       d="M 13.384521,35.968267 32.072343,30.15989 58.336309,38.24111 73.741136,31.170042 63.387072,45.312178 33.587573,37.483496 z"
       id="path3773"
       inkscape:connector-curvature="0"
       transform="translate(0,988.36218)"
       sodipodi:nodetypes="ccccccc" />
    <path
       style="fill:#6d4428;stroke:none;stroke-width:1px;stroke-linecap:butt;stroke-linejoin:miter;stroke-opacity:1;fill-opacity:1"
       d="m 85.862966,44.302025 16.920054,-11.364216 19.44544,4.545687 17.17259,-3.788072 -18.68782,14.142135 -15.9099,-3.788072 z"
       id="path3775"
       inkscape:connector-curvature="0"
       transform="translate(0,988.36218)" />
    <path
       style="fill:#6d4428;stroke:none;stroke-width:1px;stroke-linecap:butt;stroke-linejoin:miter;stroke-opacity:1;fill-opacity:1"
       d="m 159.85664,32.937809 20.96067,5.303301 25.25381,-7.576144 21.46574,8.333759 -19.69797,4.04061 -27.27412,5.555839 z"
       id="path3777"
       inkscape:connector-curvature="0"
       transform="translate(0,988.36218)" />
  </g>
</svg>
